# xmcd CD database file
#
# Track frame offsets:
#	150
#	19954
#	44785
#	64546
#	89928
#	108351
#	127928
#	147850
#	176592
#	201590
#	226472
#
# Disc length: 3207 seconds
#
# Revision: 0
# Processed by: cddbd v1.5PL3 Copyright (c) Steve Scherf et al.
# Submitted via: CDex 1.51
#
DISCID=a50c850b
DTITLE=Govinda  - Erotic Rhythms from Earth 
DYEAR=2001
DGENRE=New Age
TTITLE0=Tu M'Aimes
TTITLE1=City of Pleasures
TTITLE2=Union of Body and Sound
TTITLE3=Oranic Beauty
TTITLE4=Move Me Slow
TTITLE5=Mind Mysterium
TTITLE6=Le Zephyr
TTITLE7=Two Become One
TTITLE8=Synthetic Beauty
TTITLE9=Falling from Grace
TTITLE10=Clear With Fantasy
EXTD=YEAR: 2001
EXTT0=
EXTT1=
EXTT2=
EXTT3=
EXTT4=
EXTT5=
EXTT6=
EXTT7=
EXTT8=
EXTT9=
EXTT10=
PLAYORDER=
